<?xml version="1.0" encoding="utf-8"?>
<!-- Generator: Adobe Illustrator 27.0.0, SVG Export Plug-In . SVG Version: 6.00 Build 0)  -->
<svg version="1.1" xmlns="http://www.w3.org/2000/svg" xmlns:xlink="http://www.w3.org/1999/xlink" x="0px" y="0px"
	 viewBox="0 0 50 50" style="enable-background:new 0 0 50 50;" xml:space="preserve">
<style type="text/css">
	.st0{fill:#602421;}
	.st1{fill:#D78551;}
	.st2{fill:#B43322;}
	.st3{fill:#CD4431;}
	.st4{fill:#CE5240;}
	.st5{fill:#D06C5D;}
	.st6{fill:#D6804D;}
	.st7{fill:#E89D65;}
	.st8{fill:#B68B5B;}
	.st9{fill:#5D2921;}
	.st10{fill:#B18E52;}
	.st11{fill:#A15F3A;}
	.st12{fill:#CD936F;}
	.st13{fill:#D04132;}
	.st14{fill:#8D3F49;}
	.st15{fill:#745952;}
</style>
<g id="圖層_2">
</g>
<g id="圖層_1">
	<g>
		<rect x="3.66" y="18.46" class="st0" width="2.5" height="2.5"/>
		<rect x="3.66" y="15.96" class="st0" width="2.5" height="2.5"/>
		<rect x="6.15" y="18.46" class="st1" width="2.5" height="2.5"/>
		<rect x="8.65" y="18.46" class="st2" width="2.5" height="2.5"/>
		<rect x="13.64" y="18.46" class="st3" width="2.5" height="2.5"/>
		<rect x="11.15" y="18.46" class="st2" width="2.5" height="2.5"/>
		<rect x="16.14" y="18.46" class="st4" width="2.5" height="2.5"/>
		<rect x="18.64" y="18.46" class="st4" width="2.5" height="2.5"/>
		<rect x="21.13" y="18.46" class="st5" width="2.5" height="2.5"/>
		<rect x="23.63" y="18.46" class="st6" width="2.5" height="2.5"/>
		<rect x="26.13" y="18.46" class="st6" width="2.5" height="2.5"/>
		<rect x="28.62" y="18.46" class="st5" width="2.5" height="2.5"/>
		<rect x="31.12" y="18.46" class="st5" width="2.5" height="2.5"/>
		<rect x="33.62" y="18.46" class="st5" width="2.5" height="2.5"/>
		<rect x="36.11" y="18.46" class="st5" width="2.5" height="2.5"/>
		<rect x="38.61" y="18.46" class="st3" width="2.5" height="2.5"/>
		<rect x="41.11" y="18.46" class="st5" width="2.5" height="2.5"/>
		<rect x="6.15" y="15.96" class="st1" width="2.5" height="2.5"/>
		<rect x="8.65" y="15.96" class="st7" width="2.5" height="2.5"/>
		<rect x="13.64" y="15.96" class="st3" width="2.5" height="2.5"/>
		<rect x="11.15" y="15.96" class="st2" width="2.5" height="2.5"/>
		<rect x="16.14" y="15.96" class="st4" width="2.5" height="2.5"/>
		<rect x="18.64" y="15.96" class="st6" width="2.5" height="2.5"/>
		<rect x="21.13" y="15.96" class="st6" width="2.5" height="2.5"/>
		<rect x="23.63" y="15.96" class="st8" width="2.5" height="2.5"/>
		<rect x="26.13" y="15.96" class="st8" width="2.5" height="2.5"/>
		<rect x="28.62" y="15.96" class="st8" width="2.5" height="2.5"/>
		<rect x="31.12" y="15.96" class="st6" width="2.5" height="2.5"/>
		<rect x="33.62" y="15.96" class="st5" width="2.5" height="2.5"/>
		<rect x="36.11" y="15.96" class="st6" width="2.5" height="2.5"/>
		<rect x="38.61" y="15.96" class="st5" width="2.5" height="2.5"/>
		<rect x="8.65" y="13.47" class="st0" width="2.5" height="2.5"/>
		<rect x="6.15" y="13.47" class="st0" width="2.5" height="2.5"/>
		<rect x="13.64" y="13.47" class="st6" width="2.5" height="2.5"/>
		<rect x="11.15" y="13.47" class="st7" width="2.5" height="2.5"/>
		<rect x="16.14" y="13.47" class="st6" width="2.5" height="2.5"/>
		<rect x="18.64" y="13.47" class="st6" width="2.5" height="2.5"/>
		<rect x="21.13" y="13.47" class="st8" width="2.5" height="2.5"/>
		<rect x="23.63" y="13.47" class="st8" width="2.5" height="2.5"/>
		<rect x="26.13" y="13.47" class="st9" width="2.5" height="2.5"/>
		<rect x="28.62" y="13.47" class="st9" width="2.5" height="2.5"/>
		<rect x="31.12" y="13.47" class="st8" width="2.5" height="2.5"/>
		<rect x="33.62" y="13.47" class="st8" width="2.5" height="2.5"/>
		<rect x="36.11" y="13.47" class="st5" width="2.5" height="2.5"/>
		<rect x="13.64" y="10.97" class="st7" width="2.5" height="2.5"/>
		<rect x="11.15" y="10.97" class="st0" width="2.5" height="2.5"/>
		<rect x="16.14" y="10.97" class="st6" width="2.5" height="2.5"/>
		<rect x="18.64" y="10.97" class="st10" width="2.5" height="2.5"/>
		<rect x="21.13" y="10.97" class="st6" width="2.5" height="2.5"/>
		<rect x="23.63" y="10.97" class="st9" width="2.5" height="2.5"/>
		<rect x="26.13" y="10.97" class="st11" width="2.5" height="2.5"/>
		<rect x="28.62" y="10.97" class="st11" width="2.5" height="2.5"/>
		<rect x="31.12" y="10.97" class="st9" width="2.5" height="2.5"/>
		<rect x="33.62" y="10.97" class="st5" width="2.5" height="2.5"/>
		<rect x="13.64" y="8.47" class="st0" width="2.5" height="2.5"/>
		<rect x="16.14" y="8.47" class="st0" width="2.5" height="2.5"/>
		<rect x="18.64" y="8.47" class="st0" width="2.5" height="2.5"/>
		<rect x="21.13" y="8.47" class="st9" width="2.5" height="2.5"/>
		<rect x="23.63" y="8.47" class="st9" width="2.5" height="2.5"/>
		<rect x="26.13" y="8.47" class="st11" width="2.5" height="2.5"/>
		<rect x="23.63" y="5.98" class="st9" width="2.5" height="2.5"/>
		<rect x="26.13" y="5.98" class="st11" width="2.5" height="2.5"/>
		<rect x="23.63" y="3.48" class="st9" width="2.5" height="2.5"/>
		<rect x="26.13" y="3.48" class="st11" width="2.5" height="2.5"/>
		<rect x="28.62" y="5.98" class="st0" width="2.5" height="2.5"/>
		<rect x="28.62" y="3.48" class="st12" width="2.5" height="2.5"/>
		<rect x="31.12" y="3.48" class="st0" width="2.5" height="2.5"/>
		<rect x="23.63" y="0.98" class="st0" width="2.5" height="2.5"/>
		<rect x="26.13" y="0.98" class="st0" width="2.5" height="2.5"/>
		<rect x="28.62" y="0.98" class="st0" width="2.5" height="2.5"/>
		<rect x="28.62" y="8.47" class="st11" width="2.5" height="2.5"/>
		<rect x="31.12" y="8.47" class="st0" width="2.5" height="2.5"/>
		<rect x="33.62" y="8.47" class="st0" width="2.5" height="2.5"/>
		<rect x="36.11" y="10.97" class="st5" width="2.5" height="2.5"/>
		<rect x="38.61" y="10.97" class="st0" width="2.5" height="2.5"/>
		<rect x="36.11" y="8.47" class="st0" width="2.5" height="2.5"/>
		<rect x="38.61" y="13.47" class="st5" width="2.5" height="2.5"/>
		<rect x="41.11" y="13.47" class="st0" width="2.5" height="2.5"/>
		<rect x="41.11" y="15.96" class="st5" width="2.5" height="2.5"/>
		<rect x="3.66" y="20.96" class="st0" width="2.5" height="2.5"/>
		<rect x="6.15" y="20.96" class="st1" width="2.5" height="2.5"/>
		<rect x="8.65" y="20.96" class="st2" width="2.5" height="2.5"/>
		<rect x="13.64" y="20.96" class="st3" width="2.5" height="2.5"/>
		<rect x="11.15" y="20.96" class="st2" width="2.5" height="2.5"/>
		<rect x="16.14" y="20.96" class="st3" width="2.5" height="2.5"/>
		<rect x="18.64" y="20.96" class="st4" width="2.5" height="2.5"/>
		<rect x="21.13" y="20.96" class="st3" width="2.5" height="2.5"/>
		<rect x="23.63" y="20.96" class="st3" width="2.5" height="2.5"/>
		<rect x="26.13" y="20.96" class="st3" width="2.5" height="2.5"/>
		<rect x="28.62" y="20.96" class="st3" width="2.5" height="2.5"/>
		<rect x="31.12" y="20.96" class="st5" width="2.5" height="2.5"/>
		<rect x="33.62" y="20.96" class="st5" width="2.5" height="2.5"/>
		<rect x="36.11" y="20.96" class="st4" width="2.5" height="2.5"/>
		<rect x="38.61" y="20.96" class="st4" width="2.5" height="2.5"/>
		<rect x="41.11" y="20.96" class="st2" width="2.5" height="2.5"/>
		<rect x="3.66" y="23.45" class="st0" width="2.5" height="2.5"/>
		<rect x="6.15" y="23.45" class="st1" width="2.5" height="2.5"/>
		<rect x="8.65" y="23.45" class="st2" width="2.5" height="2.5"/>
		<rect x="13.64" y="23.45" class="st3" width="2.5" height="2.5"/>
		<rect x="11.15" y="23.45" class="st2" width="2.5" height="2.5"/>
		<rect x="16.14" y="23.45" class="st3" width="2.5" height="2.5"/>
		<rect x="18.64" y="23.45" class="st4" width="2.5" height="2.5"/>
		<rect x="21.13" y="23.45" class="st3" width="2.5" height="2.5"/>
		<rect x="23.63" y="23.45" class="st3" width="2.5" height="2.5"/>
		<rect x="26.13" y="23.45" class="st3" width="2.5" height="2.5"/>
		<rect x="28.62" y="23.45" class="st3" width="2.5" height="2.5"/>
		<rect x="31.12" y="23.45" class="st3" width="2.5" height="2.5"/>
		<rect x="33.62" y="23.45" class="st3" width="2.5" height="2.5"/>
		<rect x="36.11" y="23.45" class="st5" width="2.5" height="2.5"/>
		<rect x="38.61" y="23.45" class="st3" width="2.5" height="2.5"/>
		<rect x="41.11" y="23.45" class="st2" width="2.5" height="2.5"/>
		<rect x="3.66" y="25.95" class="st0" width="2.5" height="2.5"/>
		<rect x="6.15" y="25.95" class="st1" width="2.5" height="2.5"/>
		<rect x="8.65" y="25.95" class="st2" width="2.5" height="2.5"/>
		<rect x="13.64" y="25.95" class="st3" width="2.5" height="2.5"/>
		<rect x="11.15" y="25.95" class="st2" width="2.5" height="2.5"/>
		<rect x="16.14" y="25.95" class="st3" width="2.5" height="2.5"/>
		<rect x="18.64" y="25.95" class="st3" width="2.5" height="2.5"/>
		<rect x="21.13" y="25.95" class="st3" width="2.5" height="2.5"/>
		<rect x="23.63" y="25.95" class="st3" width="2.5" height="2.5"/>
		<rect x="26.13" y="25.95" class="st5" width="2.5" height="2.5"/>
		<rect x="28.62" y="25.95" class="st3" width="2.5" height="2.5"/>
		<rect x="31.12" y="25.95" class="st3" width="2.5" height="2.5"/>
		<rect x="33.62" y="25.95" class="st4" width="2.5" height="2.5"/>
		<rect x="36.11" y="25.95" class="st4" width="2.5" height="2.5"/>
		<rect x="38.61" y="25.95" class="st3" width="2.5" height="2.5"/>
		<rect x="41.11" y="25.95" class="st2" width="2.5" height="2.5"/>
		<rect x="3.66" y="28.45" class="st0" width="2.5" height="2.5"/>
		<rect x="6.15" y="28.45" class="st1" width="2.5" height="2.5"/>
		<rect x="8.65" y="28.45" class="st2" width="2.5" height="2.5"/>
		<rect x="13.64" y="28.45" class="st2" width="2.5" height="2.5"/>
		<rect x="11.15" y="28.45" class="st2" width="2.5" height="2.5"/>
		<rect x="16.14" y="28.45" class="st3" width="2.5" height="2.5"/>
		<rect x="18.64" y="28.45" class="st3" width="2.5" height="2.5"/>
		<rect x="21.13" y="28.45" class="st3" width="2.5" height="2.5"/>
		<rect x="23.63" y="28.45" class="st3" width="2.5" height="2.5"/>
		<rect x="26.13" y="28.45" class="st3" width="2.5" height="2.5"/>
		<rect x="28.62" y="28.45" class="st3" width="2.5" height="2.5"/>
		<rect x="31.12" y="28.45" class="st4" width="2.5" height="2.5"/>
		<rect x="33.62" y="28.45" class="st4" width="2.5" height="2.5"/>
		<rect x="36.11" y="28.45" class="st3" width="2.5" height="2.5"/>
		<rect x="38.61" y="28.45" class="st3" width="2.5" height="2.5"/>
		<rect x="41.11" y="28.45" class="st2" width="2.5" height="2.5"/>
		<rect x="3.66" y="30.94" class="st0" width="2.5" height="2.5"/>
		<rect x="6.15" y="30.94" class="st1" width="2.5" height="2.5"/>
		<rect x="8.65" y="30.94" class="st1" width="2.5" height="2.5"/>
		<rect x="13.64" y="30.94" class="st13" width="2.5" height="2.5"/>
		<rect x="11.15" y="30.94" class="st2" width="2.5" height="2.5"/>
		<rect x="16.14" y="30.94" class="st2" width="2.5" height="2.5"/>
		<rect x="18.64" y="30.94" class="st2" width="2.5" height="2.5"/>
		<rect x="21.13" y="30.94" class="st3" width="2.5" height="2.5"/>
		<rect x="23.63" y="30.94" class="st3" width="2.5" height="2.5"/>
		<rect x="26.13" y="30.94" class="st3" width="2.5" height="2.5"/>
		<rect x="28.62" y="30.94" class="st3" width="2.5" height="2.5"/>
		<rect x="31.12" y="30.94" class="st5" width="2.5" height="2.5"/>
		<rect x="33.62" y="30.94" class="st4" width="2.5" height="2.5"/>
		<rect x="36.11" y="30.94" class="st3" width="2.5" height="2.5"/>
		<rect x="38.61" y="30.94" class="st3" width="2.5" height="2.5"/>
		<rect x="41.11" y="30.94" class="st2" width="2.5" height="2.5"/>
		<rect x="3.66" y="33.44" class="st0" width="2.5" height="2.5"/>
		<rect x="6.15" y="33.44" class="st1" width="2.5" height="2.5"/>
		<rect x="8.65" y="33.44" class="st1" width="2.5" height="2.5"/>
		<rect x="13.64" y="33.44" class="st2" width="2.5" height="2.5"/>
		<rect x="11.15" y="33.44" class="st1" width="2.5" height="2.5"/>
		<rect x="16.14" y="33.44" class="st2" width="2.5" height="2.5"/>
		<rect x="18.64" y="33.44" class="st2" width="2.5" height="2.5"/>
		<rect x="21.13" y="33.44" class="st2" width="2.5" height="2.5"/>
		<rect x="23.63" y="33.44" class="st2" width="2.5" height="2.5"/>
		<rect x="26.13" y="33.44" class="st3" width="2.5" height="2.5"/>
		<rect x="28.62" y="33.44" class="st3" width="2.5" height="2.5"/>
		<rect x="31.12" y="33.44" class="st3" width="2.5" height="2.5"/>
		<rect x="33.62" y="33.44" class="st4" width="2.5" height="2.5"/>
		<rect x="36.11" y="33.44" class="st3" width="2.5" height="2.5"/>
		<rect x="38.61" y="33.44" class="st2" width="2.5" height="2.5"/>
		<rect x="41.11" y="33.44" class="st2" width="2.5" height="2.5"/>
		<rect x="6.15" y="35.94" class="st0" width="2.5" height="2.5"/>
		<rect x="8.65" y="35.94" class="st1" width="2.5" height="2.5"/>
		<rect x="13.64" y="35.94" class="st2" width="2.5" height="2.5"/>
		<rect x="11.15" y="35.94" class="st14" width="2.5" height="2.5"/>
		<rect x="16.14" y="35.94" class="st2" width="2.5" height="2.5"/>
		<rect x="18.64" y="35.94" class="st13" width="2.5" height="2.5"/>
		<rect x="21.13" y="35.94" class="st2" width="2.5" height="2.5"/>
		<rect x="23.63" y="35.94" class="st2" width="2.5" height="2.5"/>
		<rect x="26.13" y="35.94" class="st2" width="2.5" height="2.5"/>
		<rect x="28.62" y="35.94" class="st2" width="2.5" height="2.5"/>
		<rect x="31.12" y="35.94" class="st3" width="2.5" height="2.5"/>
		<rect x="33.62" y="35.94" class="st2" width="2.5" height="2.5"/>
		<rect x="36.11" y="35.94" class="st2" width="2.5" height="2.5"/>
		<rect x="38.61" y="35.94" class="st2" width="2.5" height="2.5"/>
		<rect x="41.11" y="35.94" class="st0" width="2.5" height="2.5"/>
		<rect x="6.15" y="38.43" class="st0" width="2.5" height="2.5"/>
		<rect x="8.65" y="38.43" class="st0" width="2.5" height="2.5"/>
		<rect x="13.64" y="38.43" class="st14" width="2.5" height="2.5"/>
		<rect x="11.15" y="38.43" class="st14" width="2.5" height="2.5"/>
		<rect x="16.14" y="38.43" class="st2" width="2.5" height="2.5"/>
		<rect x="18.64" y="38.43" class="st2" width="2.5" height="2.5"/>
		<rect x="21.13" y="38.43" class="st2" width="2.5" height="2.5"/>
		<rect x="23.63" y="38.43" class="st2" width="2.5" height="2.5"/>
		<rect x="26.13" y="38.43" class="st13" width="2.5" height="2.5"/>
		<rect x="28.62" y="38.43" class="st2" width="2.5" height="2.5"/>
		<rect x="31.12" y="38.43" class="st2" width="2.5" height="2.5"/>
		<rect x="33.62" y="38.43" class="st13" width="2.5" height="2.5"/>
		<rect x="36.11" y="38.43" class="st14" width="2.5" height="2.5"/>
		<rect x="13.64" y="40.93" class="st15" width="2.5" height="2.5"/>
		<rect x="11.15" y="40.93" class="st0" width="2.5" height="2.5"/>
		<rect x="16.14" y="40.93" class="st14" width="2.5" height="2.5"/>
		<rect x="18.64" y="40.93" class="st14" width="2.5" height="2.5"/>
		<rect x="21.13" y="40.93" class="st14" width="2.5" height="2.5"/>
		<rect x="23.63" y="40.93" class="st14" width="2.5" height="2.5"/>
		<rect x="26.13" y="40.93" class="st14" width="2.5" height="2.5"/>
		<rect x="28.62" y="40.93" class="st2" width="2.5" height="2.5"/>
		<rect x="31.12" y="40.93" class="st2" width="2.5" height="2.5"/>
		<rect x="33.62" y="40.93" class="st14" width="2.5" height="2.5"/>
		<rect x="13.64" y="43.43" class="st0" width="2.5" height="2.5"/>
		<rect x="16.14" y="43.43" class="st15" width="2.5" height="2.5"/>
		<rect x="18.64" y="43.43" class="st15" width="2.5" height="2.5"/>
		<rect x="16.14" y="45.92" class="st0" width="2.5" height="2.5"/>
		<rect x="18.64" y="45.92" class="st0" width="2.5" height="2.5"/>
		<rect x="21.13" y="43.43" class="st0" width="2.5" height="2.5"/>
		<rect x="23.63" y="43.43" class="st0" width="2.5" height="2.5"/>
		<rect x="26.13" y="43.43" class="st14" width="2.5" height="2.5"/>
		<rect x="28.62" y="43.43" class="st14" width="2.5" height="2.5"/>
		<rect x="31.12" y="43.43" class="st14" width="2.5" height="2.5"/>
		<rect x="26.13" y="45.92" class="st0" width="2.5" height="2.5"/>
		<rect x="28.62" y="45.92" class="st0" width="2.5" height="2.5"/>
		<rect x="31.12" y="45.92" class="st0" width="2.5" height="2.5"/>
		<rect x="33.62" y="43.43" class="st0" width="2.5" height="2.5"/>
		<rect x="36.11" y="40.93" class="st0" width="2.5" height="2.5"/>
		<rect x="38.61" y="38.43" class="st0" width="2.5" height="2.5"/>
		<rect x="41.11" y="38.43" class="st0" width="2.5" height="2.5"/>
		<rect x="43.6" y="18.46" class="st0" width="2.5" height="2.5"/>
		<rect x="43.6" y="15.96" class="st0" width="2.5" height="2.5"/>
		<rect x="43.6" y="20.96" class="st0" width="2.5" height="2.5"/>
		<rect x="43.6" y="23.45" class="st0" width="2.5" height="2.5"/>
		<rect x="43.6" y="25.95" class="st0" width="2.5" height="2.5"/>
		<rect x="43.6" y="28.45" class="st0" width="2.5" height="2.5"/>
		<rect x="43.6" y="30.94" class="st0" width="2.5" height="2.5"/>
		<rect x="43.6" y="33.44" class="st0" width="2.5" height="2.5"/>
	</g>
</g>
</svg>
