<?xml version="1.0" encoding="utf-8"?>
<!-- Generator: Adobe Illustrator 27.0.0, SVG Export Plug-In . SVG Version: 6.00 Build 0)  -->
<svg version="1.1" xmlns="http://www.w3.org/2000/svg" xmlns:xlink="http://www.w3.org/1999/xlink" x="0px" y="0px"
	 viewBox="0 0 50 50" style="enable-background:new 0 0 50 50;" xml:space="preserve">
<style type="text/css">
	.st0{fill:#5B2721;}
	.st1{fill:#5E5C31;}
	.st2{fill:#7C904E;}
	.st3{fill:#55251E;}
	.st4{fill:#A73625;}
	.st5{fill:#8B2521;}
	.st6{fill:#515F2C;}
	.st7{fill:#5A251A;}
	.st8{fill:#C2402C;}
	.st9{fill:#572521;}
	.st10{fill:#AC3828;}
	.st11{fill:#88423C;}
	.st12{fill:#D9B39B;}
	.st13{fill:#C2402E;}
	.st14{fill:#5B4746;}
	.st15{fill:#A73827;}
	.st16{fill:#818D49;}
	.st17{fill:#9AAF72;}
	.st18{fill:#55612D;}
	.st19{fill:#384333;}
</style>
<g id="圖層_2">
</g>
<g id="圖層_1">
	<g>
		<rect x="22.38" y="22.2" class="st0" width="2.5" height="2.5"/>
		<rect x="24.88" y="22.2" class="st1" width="2.5" height="2.5"/>
		<rect x="32.37" y="22.2" class="st2" width="2.5" height="2.5"/>
		<rect x="34.86" y="22.2" class="st0" width="2.5" height="2.5"/>
		<rect x="24.88" y="19.71" class="st0" width="2.5" height="2.5"/>
		<rect x="24.88" y="17.21" class="st0" width="2.5" height="2.5"/>
		<rect x="24.88" y="14.71" class="st0" width="2.5" height="2.5"/>
		<rect x="24.88" y="12.22" class="st0" width="2.5" height="2.5"/>
		<rect x="27.37" y="19.71" class="st1" width="2.5" height="2.5"/>
		<rect x="29.87" y="19.71" class="st2" width="2.5" height="2.5"/>
		<rect x="32.37" y="19.71" class="st0" width="2.5" height="2.5"/>
		<rect x="29.87" y="22.2" class="st0" width="2.5" height="2.5"/>
		<rect x="27.37" y="22.2" class="st0" width="2.5" height="2.5"/>
		<rect x="7.4" y="24.7" class="st0" width="2.5" height="2.5"/>
		<rect x="9.9" y="24.7" class="st0" width="2.5" height="2.5"/>
		<rect x="14.89" y="24.7" class="st0" width="2.5" height="2.5"/>
		<rect x="12.39" y="24.7" class="st0" width="2.5" height="2.5"/>
		<rect x="19.88" y="24.7" class="st0" width="2.5" height="2.5"/>
		<rect x="22.38" y="24.7" class="st1" width="2.5" height="2.5"/>
		<rect x="24.88" y="24.7" class="st0" width="2.5" height="2.5"/>
		<rect x="22.38" y="27.2" class="st0" width="2.5" height="2.5"/>
		<rect x="32.37" y="24.7" class="st2" width="2.5" height="2.5"/>
		<rect x="29.87" y="24.7" class="st3" width="2.5" height="2.5"/>
		<rect x="34.86" y="24.7" class="st0" width="2.5" height="2.5"/>
		<rect x="4.9" y="27.2" class="st0" width="2.5" height="2.5"/>
		<rect x="7.4" y="27.2" class="st4" width="2.5" height="2.5"/>
		<rect x="9.9" y="27.2" class="st5" width="2.5" height="2.5"/>
		<rect x="14.89" y="27.2" class="st4" width="2.5" height="2.5"/>
		<rect x="12.39" y="27.2" class="st5" width="2.5" height="2.5"/>
		<rect x="17.39" y="27.2" class="st0" width="2.5" height="2.5"/>
		<rect x="19.88" y="27.2" class="st1" width="2.5" height="2.5"/>
		<rect x="32.37" y="27.2" class="st6" width="2.5" height="2.5"/>
		<rect x="34.86" y="27.2" class="st7" width="2.5" height="2.5"/>
		<rect x="37.36" y="27.2" class="st0" width="2.5" height="2.5"/>
		<rect x="39.86" y="27.2" class="st0" width="2.5" height="2.5"/>
		<rect x="4.9" y="29.69" class="st5" width="2.5" height="2.5"/>
		<rect x="7.4" y="29.69" class="st5" width="2.5" height="2.5"/>
		<rect x="9.9" y="29.69" class="st5" width="2.5" height="2.5"/>
		<rect x="14.89" y="29.69" class="st8" width="2.5" height="2.5"/>
		<rect x="12.39" y="29.69" class="st4" width="2.5" height="2.5"/>
		<rect x="17.39" y="29.69" class="st8" width="2.5" height="2.5"/>
		<rect x="19.88" y="29.69" class="st0" width="2.5" height="2.5"/>
		<rect x="29.87" y="29.69" class="st5" width="2.5" height="2.5"/>
		<rect x="29.87" y="27.2" class="st0" width="2.5" height="2.5"/>
		<rect x="32.37" y="29.69" class="st9" width="2.5" height="2.5"/>
		<rect x="34.86" y="29.69" class="st10" width="2.5" height="2.5"/>
		<rect x="37.36" y="29.69" class="st10" width="2.5" height="2.5"/>
		<rect x="39.86" y="29.69" class="st10" width="2.5" height="2.5"/>
		<rect x="42.35" y="29.69" class="st0" width="2.5" height="2.5"/>
		<rect x="4.9" y="32.19" class="st11" width="2.5" height="2.5"/>
		<rect x="7.4" y="32.19" class="st5" width="2.5" height="2.5"/>
		<rect x="9.9" y="32.19" class="st4" width="2.5" height="2.5"/>
		<rect x="14.89" y="32.19" class="st12" width="2.5" height="2.5"/>
		<rect x="12.39" y="32.19" class="st8" width="2.5" height="2.5"/>
		<rect x="17.39" y="32.19" class="st12" width="2.5" height="2.5"/>
		<rect x="19.88" y="32.19" class="st0" width="2.5" height="2.5"/>
		<rect x="27.37" y="32.19" class="st5" width="2.5" height="2.5"/>
		<rect x="27.37" y="29.69" class="st0" width="2.5" height="2.5"/>
		<rect x="29.87" y="32.19" class="st5" width="2.5" height="2.5"/>
		<rect x="32.37" y="32.19" class="st13" width="2.5" height="2.5"/>
		<rect x="34.86" y="32.19" class="st13" width="2.5" height="2.5"/>
		<rect x="37.36" y="32.19" class="st12" width="2.5" height="2.5"/>
		<rect x="39.86" y="32.19" class="st12" width="2.5" height="2.5"/>
		<rect x="42.35" y="32.19" class="st10" width="2.5" height="2.5"/>
		<rect x="4.9" y="34.69" class="st14" width="2.5" height="2.5"/>
		<rect x="7.4" y="34.69" class="st5" width="2.5" height="2.5"/>
		<rect x="9.9" y="34.69" class="st4" width="2.5" height="2.5"/>
		<rect x="14.89" y="34.69" class="st8" width="2.5" height="2.5"/>
		<rect x="12.39" y="34.69" class="st8" width="2.5" height="2.5"/>
		<rect x="17.39" y="34.69" class="st8" width="2.5" height="2.5"/>
		<rect x="19.88" y="34.69" class="st0" width="2.5" height="2.5"/>
		<rect x="27.37" y="34.69" class="st11" width="2.5" height="2.5"/>
		<rect x="29.87" y="34.69" class="st5" width="2.5" height="2.5"/>
		<rect x="32.37" y="34.69" class="st15" width="2.5" height="2.5"/>
		<rect x="34.86" y="34.69" class="st13" width="2.5" height="2.5"/>
		<rect x="37.36" y="34.69" class="st13" width="2.5" height="2.5"/>
		<rect x="39.86" y="34.69" class="st13" width="2.5" height="2.5"/>
		<rect x="42.35" y="34.69" class="st13" width="2.5" height="2.5"/>
		<rect x="4.9" y="37.18" class="st14" width="2.5" height="2.5"/>
		<rect x="7.4" y="37.18" class="st5" width="2.5" height="2.5"/>
		<rect x="9.9" y="37.18" class="st5" width="2.5" height="2.5"/>
		<rect x="14.89" y="37.18" class="st4" width="2.5" height="2.5"/>
		<rect x="12.39" y="37.18" class="st4" width="2.5" height="2.5"/>
		<rect x="17.39" y="37.18" class="st4" width="2.5" height="2.5"/>
		<rect x="19.88" y="37.18" class="st0" width="2.5" height="2.5"/>
		<rect x="27.37" y="37.18" class="st14" width="2.5" height="2.5"/>
		<rect x="29.87" y="37.18" class="st5" width="2.5" height="2.5"/>
		<rect x="32.37" y="37.18" class="st15" width="2.5" height="2.5"/>
		<rect x="34.86" y="37.18" class="st15" width="2.5" height="2.5"/>
		<rect x="37.36" y="37.18" class="st13" width="2.5" height="2.5"/>
		<rect x="39.86" y="37.18" class="st13" width="2.5" height="2.5"/>
		<rect x="42.35" y="37.18" class="st15" width="2.5" height="2.5"/>
		<rect x="44.85" y="32.19" class="st0" width="2.5" height="2.5"/>
		<rect x="44.85" y="34.69" class="st0" width="2.5" height="2.5"/>
		<rect x="44.85" y="37.18" class="st0" width="2.5" height="2.5"/>
		<rect x="19.88" y="2.23" class="st0" width="2.5" height="2.5"/>
		<rect x="22.38" y="2.23" class="st0" width="2.5" height="2.5"/>
		<rect x="24.88" y="2.23" class="st0" width="2.5" height="2.5"/>
		<rect x="17.39" y="4.73" class="st0" width="2.5" height="2.5"/>
		<rect x="19.88" y="4.73" class="st16" width="2.5" height="2.5"/>
		<rect x="22.38" y="4.73" class="st16" width="2.5" height="2.5"/>
		<rect x="24.88" y="4.73" class="st17" width="2.5" height="2.5"/>
		<rect x="27.37" y="4.73" class="st0" width="2.5" height="2.5"/>
		<rect x="29.87" y="4.73" class="st0" width="2.5" height="2.5"/>
		<rect x="17.39" y="7.22" class="st0" width="2.5" height="2.5"/>
		<rect x="19.88" y="7.22" class="st18" width="2.5" height="2.5"/>
		<rect x="22.38" y="7.22" class="st18" width="2.5" height="2.5"/>
		<rect x="24.88" y="7.22" class="st16" width="2.5" height="2.5"/>
		<rect x="27.37" y="7.22" class="st17" width="2.5" height="2.5"/>
		<rect x="29.87" y="7.22" class="st17" width="2.5" height="2.5"/>
		<rect x="32.37" y="7.22" class="st0" width="2.5" height="2.5"/>
		<rect x="19.88" y="9.72" class="st0" width="2.5" height="2.5"/>
		<rect x="22.38" y="9.72" class="st0" width="2.5" height="2.5"/>
		<rect x="24.88" y="9.72" class="st18" width="2.5" height="2.5"/>
		<rect x="27.37" y="9.72" class="st18" width="2.5" height="2.5"/>
		<rect x="29.87" y="9.72" class="st18" width="2.5" height="2.5"/>
		<rect x="32.37" y="9.72" class="st0" width="2.5" height="2.5"/>
		<rect x="27.37" y="12.22" class="st19" width="2.5" height="2.5"/>
		<rect x="29.87" y="12.22" class="st0" width="2.5" height="2.5"/>
		<rect x="27.37" y="14.71" class="st1" width="2.5" height="2.5"/>
		<rect x="29.87" y="14.71" class="st0" width="2.5" height="2.5"/>
		<rect x="27.37" y="17.21" class="st1" width="2.5" height="2.5"/>
		<rect x="29.87" y="17.21" class="st2" width="2.5" height="2.5"/>
		<rect x="32.37" y="17.21" class="st0" width="2.5" height="2.5"/>
		<rect x="4.9" y="39.68" class="st0" width="2.5" height="2.5"/>
		<rect x="7.4" y="42.18" class="st0" width="2.5" height="2.5"/>
		<rect x="9.9" y="42.18" class="st0" width="2.5" height="2.5"/>
		<rect x="14.89" y="42.18" class="st0" width="2.5" height="2.5"/>
		<rect x="12.39" y="42.18" class="st0" width="2.5" height="2.5"/>
		<rect x="17.39" y="42.18" class="st0" width="2.5" height="2.5"/>
		<rect x="27.37" y="42.18" class="st0" width="2.5" height="2.5"/>
		<rect x="29.87" y="42.18" class="st14" width="2.5" height="2.5"/>
		<rect x="32.37" y="42.18" class="st14" width="2.5" height="2.5"/>
		<rect x="34.86" y="42.18" class="st11" width="2.5" height="2.5"/>
		<rect x="37.36" y="42.18" class="st5" width="2.5" height="2.5"/>
		<rect x="39.86" y="42.18" class="st5" width="2.5" height="2.5"/>
		<rect x="42.35" y="42.18" class="st0" width="2.5" height="2.5"/>
		<rect x="7.4" y="39.68" class="st14" width="2.5" height="2.5"/>
		<rect x="9.9" y="39.68" class="st11" width="2.5" height="2.5"/>
		<rect x="14.89" y="39.68" class="st5" width="2.5" height="2.5"/>
		<rect x="12.39" y="39.68" class="st5" width="2.5" height="2.5"/>
		<rect x="17.39" y="39.68" class="st5" width="2.5" height="2.5"/>
		<rect x="19.88" y="39.68" class="st0" width="2.5" height="2.5"/>
		<rect x="27.37" y="39.68" class="st14" width="2.5" height="2.5"/>
		<rect x="24.88" y="34.69" class="st0" width="2.5" height="2.5"/>
		<rect x="24.88" y="32.19" class="st0" width="2.5" height="2.5"/>
		<rect x="24.88" y="37.18" class="st0" width="2.5" height="2.5"/>
		<rect x="24.88" y="39.68" class="st0" width="2.5" height="2.5"/>
		<rect x="29.87" y="39.68" class="st14" width="2.5" height="2.5"/>
		<rect x="32.37" y="39.68" class="st5" width="2.5" height="2.5"/>
		<rect x="34.86" y="39.68" class="st15" width="2.5" height="2.5"/>
		<rect x="37.36" y="39.68" class="st15" width="2.5" height="2.5"/>
		<rect x="39.86" y="39.68" class="st15" width="2.5" height="2.5"/>
		<rect x="42.35" y="39.68" class="st15" width="2.5" height="2.5"/>
		<rect x="29.87" y="44.67" class="st0" width="2.5" height="2.5"/>
		<rect x="32.37" y="44.67" class="st0" width="2.5" height="2.5"/>
		<rect x="34.86" y="44.67" class="st0" width="2.5" height="2.5"/>
		<rect x="37.36" y="44.67" class="st0" width="2.5" height="2.5"/>
		<rect x="39.86" y="44.67" class="st0" width="2.5" height="2.5"/>
		<rect x="2.41" y="29.69" class="st0" width="2.5" height="2.5"/>
		<rect x="2.41" y="32.19" class="st0" width="2.5" height="2.5"/>
		<rect x="2.41" y="34.69" class="st0" width="2.5" height="2.5"/>
		<rect x="2.41" y="37.18" class="st0" width="2.5" height="2.5"/>
		<rect x="44.85" y="39.68" class="st0" width="2.5" height="2.5"/>
	</g>
</g>
</svg>
