<?xml version="1.0" encoding="utf-8"?>
<!-- Generator: Adobe Illustrator 27.0.0, SVG Export Plug-In . SVG Version: 6.00 Build 0)  -->
<svg version="1.1" id="圖層_2" xmlns="http://www.w3.org/2000/svg" xmlns:xlink="http://www.w3.org/1999/xlink" x="0px" y="0px"
	 viewBox="0 0 50 100" style="enable-background:new 0 0 50 100;" xml:space="preserve">
<style type="text/css">
	.st0{fill:#C2BBBB;}
	.st1{fill:#8B918E;}
	.st2{fill:#DFD9D8;}
	.st3{fill:none;stroke:#301706;stroke-miterlimit:10;}
	.st4{fill:#D34035;}
	.st5{fill:#AB3528;}
	.st6{fill:#FFFFFF;}
</style>
<g>
	<g>
		<path class="st0" d="M29,75.32V32.72h-3.1v38.56c0,0-0.08,2.84-3.91,4.37c-2.1,0.84-3.39,1.38-4.13,1.7v0.18c0,0,7.61,0.1,9.5,0
			C29.26,77.42,29,75.32,29,75.32z"/>
		<path class="st1" d="M25.91,71.27V32.72h-3.14c0,0,0.1,35.81,0,37.24c-0.1,1.43-1.33,1.18-1.33,1.18h-3.58v6.2
			c0.74-0.32,2.03-0.86,4.13-1.7C25.83,74.11,25.91,71.27,25.91,71.27z"/>
		<g>
			<path class="st2" d="M27.27,41.17c-0.29,0-0.52,0.23-0.52,0.52v1.99c0,0.29,0.23,0.52,0.52,0.52c0.29,0,0.52-0.23,0.52-0.52
				v-1.99C27.79,41.41,27.56,41.17,27.27,41.17z"/>
			<path class="st2" d="M27.79,45.51c0-0.29-0.23-0.52-0.52-0.52c-0.29,0-0.52,0.23-0.52,0.52v8.51h0.01c0,0.02-0.01,0.03-0.01,0.05
				c0,0.29,0.23,0.52,0.52,0.52c0.29,0,0.52-0.23,0.52-0.52c0-0.02-0.01-0.03-0.01-0.05h0.01V45.51z"/>
		</g>
		<path class="st2" d="M17.87,77.29c0,0,7.61,0.1,9.5,0c1.89-0.1,1.63-2.2,1.63-2.2v-1.02c-0.51,0.75-1.08,1.44-1.58,1.66
			c-1.25,0.54-4.77,1-6.46,1c-0.65,0-1.45,0-2.19,0c-0.36,0.15-0.67,0.28-0.91,0.38V77.29z"/>
		<path class="st3" d="M17.87,71.02h3.58c0,0,1.23,0.26,1.33-1.18c0.1-1.43,0-37.24,0-37.24H29v42.61c0,0,0.26,2.09-1.63,2.2
			c-1.89,0.1-9.5,0-9.5,0V71.02z"/>
	</g>
	<g>
		<g>
			<g>
				<path class="st4" d="M32.13,28.87c0-3.56-2.88-6.44-6.44-6.44c-1.3,0-2.51,0.39-3.52,1.05c1.91,2.99,5.16,7.97,7.01,10.79
					C30.96,33.13,32.13,31.14,32.13,28.87z"/>
				<path class="st5" d="M19.26,28.87c0,3.56,2.88,6.44,6.44,6.44c1.29,0,2.48-0.38,3.49-1.03c-1.85-2.82-5.11-7.8-7.01-10.79
					C20.42,24.64,19.26,26.62,19.26,28.87z"/>
			</g>
			<circle class="st3" cx="25.7" cy="28.87" r="6.44"/>
		</g>
		<path class="st6" d="M30.49,29.72c0,0.1-0.01,0.2-0.02,0.3c0.32-0.56,0.51-1.2,0.51-1.89c0-2.08-1.69-3.77-3.77-3.77
			c-0.54,0-1.05,0.12-1.52,0.32C28.37,24.81,30.49,27.02,30.49,29.72z"/>
	</g>
</g>
</svg>
